<svg xmlns="http://www.w3.org/2000/svg" xmlns:xlink="http://www.w3.org/1999/xlink" viewBox="0 0 936 1225.31"><defs><style>.a{fill:#f3f4f5;stroke:#c8c8c8;stroke-width:0.77px;}.a,.b{stroke-miterlimit:10;}.b{stroke:#333;stroke-width:4.59px;fill:url(#a);}.c{fill:#212223;}.d{fill:#f2f1f1;}.e{fill:#e13c37;}.f{fill:#40a147;}.g{fill:#f6c228;}.h{fill:#2d96ce;}</style><radialGradient id="a" cx="920.34" cy="509.69" fx="1110.907323564379" fy="20.534598779108364" r="524.97" gradientTransform="translate(11.04 17.13) rotate(1.31) scale(1 0.93)" gradientUnits="userSpaceOnUse"><stop offset="0" stop-color="#fff"/><stop offset="0.21" stop-color="#f4b1b0"/><stop offset="0.54" stop-color="#e23a36"/></radialGradient></defs><path class="a" d="M1073,1123.14c-7.72,11.9-18.14,20.75-30.2,27.81-3.89,2.27-5.55,5-5.37,9.66.37,10.13.24,20.3.08,30.45-.28,19-.72,38-1.18,56.91a28.14,28.14,0,0,1-1.09,7c-.37,1.31-1.57,2.38-2.4,3.57-1-1.2-2.64-2.29-2.88-3.62a35.65,35.65,0,0,1,0-7.73c.28-6.22.82-12.44,1-18.66.46-21.56.8-43.12,1.17-64.68,0-1.82,0-3.64,0-6-8.26,3.55-15.84,7.53-23.87,10.11-18.22,5.87-36.46,11.91-55.07,16.32-21,5-42.36,8.41-63.63,12.13-7.7,1.35-15.59,1.63-23.92,2.45,9.38,19.61,18.44,38.54,27.89,58.33H632.91a621.81,621.81,0,0,1,31.48-100.91c-42.66-19.49-71.33-51.81-82.72-97.07-9.34-37.1-4.73-73.71,15.26-107.14,44.24-74,132.05-88.09,194.33-52.81,72.29,40.93,98.53,137.75,42.32,214.14,2.79-.51,4.81-.68,6.73-1.25,27.25-8.06,54.62-15.72,81.67-24.41,17.59-5.63,34.6-13,52-19.15,18.59-6.52,37.36-12.47,57.23-19.06-.36-7.56-.85-16.69-1.24-25.84-.16-3.69,0-7.39-.21-11.07-1.07-21.61-2-43.24-3.4-64.83-1.06-16-2.31-32.09-4.46-48-3.57-26.31-7.67-52.55-12-78.74-2.88-17.36-6.6-34.58-10-51.84a29.78,29.78,0,0,0-1.2-3.75l-.39,0,5.58-1.56a952.51,952.51,0,0,1,23.52,142.5c4.39,47.88,7.3,95.9,10.84,143.72,12.45-1.63,24.3-.35,34.83,7.13a28.48,28.48,0,0,1,11.87,20.8C1086.61,1094.39,1082,1109.38,1073,1123.14Z" transform="translate(-396 -250.2)"/><path class="b" d="M1150.48,482.9c-1.15-14.73-1.66-29.73-5-44-3.81-16.26-9.63-32.21-16.17-47.61-5.29-12.46-12.42-24.23-19.69-35.71a202.58,202.58,0,0,0-42.36-47.84c-8.54-7.06-17.31-14-26.7-19.88-16.18-10-33-19.11-51.56-24l-3-.81h-.05c-8-2.12-16.08-4.27-24.19-6.05A174.93,174.93,0,0,0,939,253.42c-21.63-1.77-43.54-1.29-65.05,3.9-18.61,4.5-36.83,10-53.84,18.81a268.5,268.5,0,0,0-36.89,23,220,220,0,0,0-44.11,44.17C729.2,356.43,721,371,713.49,385.67a182.83,182.83,0,0,0-18.06,54.4c-2.4,15.1-4.21,30.32-5.5,45.55-.62,7.43.13,15.06,1,22.52,1.6,13.17,2.67,26.55,6,39.31a275.26,275.26,0,0,0,15.1,43A231.28,231.28,0,0,0,778.75,677c25.54,20.53,54,35.6,85.93,43.31a265.09,265.09,0,0,0,40.85,6.54,247.58,247.58,0,0,0,39.46-.26c9.46-.76,18.52-1.07,27.32,2.77,9,4,12.07,13.06,7.77,22.17-1.29,2.74-1.76,5.87-2.74,8.78-1.57,4.69.52,6.78,5,6.58,5.25-.22,10.47-.88,16-1.39l5.58-1.56c4.18-.56,7.41-.95,10.63-1.45,4.74-.73,7.07-4.41,5.91-9.21-1.76-7.23-6.29-12-12.89-15.19-8.11-3.88-8.39-4.75-5-13.12.48-1.17.66-2.47,1.22-3.61,2.91-6.08,6.12-11.78,12.75-14.86,5.92-2.75,11.52-6.18,17.3-9.24,18.92-10,35.36-23.46,50-38.74,11-11.49,20.51-24.62,29.47-37.84,14.67-21.66,24.43-45.72,30.56-71.11C1149.1,527.71,1152.23,505.48,1150.48,482.9ZM957.26,445l4.15-.89a16.28,16.28,0,0,1,19.39,12.47l6.05,27.79a16.33,16.33,0,0,1-12.48,19.4l-4.15.89a16.28,16.28,0,0,1-19.39-12.47l-6-27.79A16.3,16.3,0,0,1,957.26,445ZM838.8,468.75l4.15-.9a16.29,16.29,0,0,1,19.39,12.47l6,27.79a16.31,16.31,0,0,1-12.47,19.4l-4.15.9a16.3,16.3,0,0,1-19.39-12.48l-6-27.79A16.3,16.3,0,0,1,838.8,468.75ZM1028.21,519a180.5,180.5,0,0,1-29.5,32.3c-12.41,10.64-38.29,32.84-76.92,37.9-23.24,3-41.95-1.31-54.11-4.15a181.43,181.43,0,0,1-43.17-16.08.89.89,0,0,1-.27-1.35,6,6,0,0,1,.39-.49.89.89,0,0,1,1.07-.26,171.48,171.48,0,0,0,40.65,13.47,150.94,150.94,0,0,0,116.34-22.25,161.39,161.39,0,0,0,42.82-41.1.88.88,0,0,1,1.28-.17l1.23,1A.91.91,0,0,1,1028.21,519Z" transform="translate(-396 -250.2)"/><path class="c" d="M855.91,527.51l-4.15.9a16.3,16.3,0,0,1-19.39-12.48l-6-27.79a16.3,16.3,0,0,1,12.47-19.39l4.15-.9a16.29,16.29,0,0,1,19.39,12.47l6,27.79A16.31,16.31,0,0,1,855.91,527.51Z" transform="translate(-396 -250.2)"/><path class="c" d="M974.37,503.72l-4.15.89a16.28,16.28,0,0,1-19.39-12.47l-6-27.79A16.3,16.3,0,0,1,957.26,445l4.15-.89a16.28,16.28,0,0,1,19.39,12.47l6.05,27.79A16.33,16.33,0,0,1,974.37,503.72Z" transform="translate(-396 -250.2)"/><path class="c" d="M1028.21,519a180.5,180.5,0,0,1-29.5,32.3c-12.41,10.64-38.29,32.84-76.92,37.9-23.24,3-41.95-1.31-54.11-4.15a181.43,181.43,0,0,1-43.17-16.08.89.89,0,0,1-.27-1.35,6,6,0,0,1,.39-.49.89.89,0,0,1,1.07-.26,171.48,171.48,0,0,0,40.65,13.47,150.94,150.94,0,0,0,116.34-22.25,161.39,161.39,0,0,0,42.82-41.1.88.88,0,0,1,1.28-.17l1.23,1A.91.91,0,0,1,1028.21,519Z" transform="translate(-396 -250.2)"/><rect class="d" y="1041.26" width="936" height="184.05"/><path class="e" d="M511.83,1350.29c.38,1.11.77,2.22,1.16,3.33-5.18,3.24-10.16,6.88-15.63,9.5-1.83.88-4.92-.87-7.42-1.41,1.26-2,2.09-5.17,3.88-5.89C499.63,1353.5,505.8,1352.07,511.83,1350.29Z" transform="translate(-396 -250.2)"/><path class="e" d="M623.31,1298.82h-215a6.3,6.3,0,0,0-6.3,6.29v158.36a6.3,6.3,0,0,0,6.3,6.31h215a6.3,6.3,0,0,0,6.3-6.31V1305.11A6.3,6.3,0,0,0,623.31,1298.82ZM588.47,1338c-4.41.67-9,.82-13.16,2.26-2.18.74-5.2,3.8-5.12,5.71,1.09,27.55,2.74,55.07,4,82.61.37,7.9.06,15.85.06,25-7.75-3.11-8.72-8.13-9.33-13.16-3.59-29.46-8-58.86-6.4-88.7.16-2.83,0-5.66,0-9H539.23c2.25,2.92,4.65,5.2,6,8,4,8.21,2.3,16.37-1.72,24-8.28,15.64-23.15,23.15-38.35,30-6.78,3-13.92,5.26-21.89,8.24,22.63,17.11,51.77,21,72.83,38.88-.5,1.35-1,2.69-1.49,4-6-.93-12.54-.57-17.83-3-22.4-10.26-44.46-21.32-66.58-32.21a21.26,21.26,0,0,1-5.37-4.37c-5.45-5.49-3.91-10.78,3.52-13.22,14.48-4.74,29.14-9,43.26-14.7,11.64-4.66,22.33-11.29,26.93-24.22,2.36-6.67-.16-12.19-6.2-14.92-6.71,7.06-12.56,14.67-19.84,20.5-9.5,7.61-21.16,6-32.17,3.73-1.86-.38-4.43-5.18-4-7.46,1.35-7.46,4.07-14.54,11.71-18.29,1.95-.95,3.53-2.66,6.24-4.77-17.8-2.62-35.13,2.46-51.4-5.88,1.47-.6,2.91-1.56,4.44-1.72,4.92-.54,9.87-1,14.81-1.12,31.21-.74,62.43-1.58,93.65-2,9.32-.11,18.66,1.07,28,1.88,1.7.14,3.33,1.31,5,2C588.66,1336.69,588.56,1337.34,588.47,1338Z" transform="translate(-396 -250.2)"/><path class="f" d="M782.25,1357.44c0,7-1,14-1.49,21-.91,12.87-1.73,25.74-2.65,39.59-7.53-5.13-14.7-9.87-21.67-14.91-.8-.57-1.06-3-.55-4.11,7.26-15.57,6-30.18-6.24-44.73,10.73-.89,19.46-1.91,28.2-2.1C779.36,1352.12,782.25,1355.59,782.25,1357.44Z" transform="translate(-396 -250.2)"/><path class="f" d="M843.58,1298H642.15a6.31,6.31,0,0,0-6.3,6.3v158.36a6.31,6.31,0,0,0,6.3,6.31H843.58a6.31,6.31,0,0,0,6.3-6.31V1304.26A6.31,6.31,0,0,0,843.58,1298ZM795,1406.74c-.68,18.35,3.34,36.93-1,55.12l-2.52.61c-2.08-3.72-5.44-7.25-6-11.19-3.18-21.53-17.68-32.51-37-40.36-4.72,4.86-9.61,10.65-15.28,15.56-7.31,6.33-15.15,6.32-22.77.58-4.2-3.18-6.69-7.25-3.85-12.7,4.1,0,8.15.77,11.75-.15,8.35-2.16,15.37-6.26,18-15.5,1.82-6.51,4.65-12.76,6.11-19.33,3.29-14.71-5.18-24.79-20-24.1-5.92.26-11.82,1.06-19.45,1.8,0,6.55-.06,13,0,19.43.25,20.56.73,41.12.64,61.69,0,3.91-2.3,7.82-3.55,11.72-2.27-3.47-5.87-6.69-6.56-10.44a208.17,208.17,0,0,1-3.46-31c-.51-15.88-.17-31.8.12-47.69.07-3.84-.58-5.64-4.83-6.1-3.86-.42-7.58-2.16-11.36-3.31l0-3.21c3.19-.6,6.4-1.77,9.56-1.67,5.56.17,8.47-1.71,9.76-7.43,3.5-15.39,10.66-28.6,26.36-34.42,18-6.65,36.53-7.49,55.26-3.32,5.26,1.17,10.44,2.67,15.66,4-.07.84-.15,1.66-.22,2.5-34.93-3.71-68.36-3.9-85.44,35,38.24-.3,76.12-5,113.75.93l.24,3.6-23.83,3.36C795.1,1369.62,795.64,1388.2,795,1406.74Z" transform="translate(-396 -250.2)"/><path class="g" d="M934.59,1388.2c6.34-1.33,13-1.29,19.78-1.88-1.1,10.27-7.64,17.12-15.63,18-5.43.62-9.35-1.53-10.8-6.59C926.4,1392.43,930.22,1389.12,934.59,1388.2Z" transform="translate(-396 -250.2)"/><path class="g" d="M987.65,1429l.09,2.48c-11,7-23.65,7.58-36.24,8-1.31,0-3.14-1.64-3.85-3-.35-.68,1-2.9,2.09-3.57,2.82-1.75,5.91-4.16,9-4.29C968.34,1428.31,978,1428.85,987.65,1429Z" transform="translate(-396 -250.2)"/><path class="g" d="M949.21,1339.4h46.71v55.12c-9.6-6.21-17.91-11.58-26.19-17a5,5,0,0,1-1.4-1.82q-9.78-17.46-19.49-34.94C948.76,1340.6,949,1340.29,949.21,1339.4Z" transform="translate(-396 -250.2)"/><path class="g" d="M1079.69,1297.19H863a6.3,6.3,0,0,0-6.29,6.3v158.36a6.3,6.3,0,0,0,6.29,6.3h216.68a6.3,6.3,0,0,0,6.3-6.3V1303.49A6.3,6.3,0,0,0,1079.69,1297.19Zm-64.13,143.87c-2-1.25-4.18-2.16-6.11-3.48-7.73-5.28-14.63-4.54-23,.07-15.1,8.31-31.61,12.45-48.74,6.32-3.76-1.35-6.49-5.57-9.7-8.47,3-3.25,5.31-8,9-9.52,17.54-7.48,35.91-7.61,54.5-4.48,8.83,1.49,10.15-.08,6.7-8.19-5.46-12.8-15.84-20.08-28.1-24.42-5.72,6.93-9.84,13.89-15.78,18.53-5.23,4.08-12.27,6.73-18.89,7.9-10.93,1.94-16-1.51-19-10.34-2.85-8.37.37-19.13,8.64-22.73,9.43-4.12,19.71-6.34,30.61-9.69-3.3-9.16-11.83-16.37-19.39-24.67-9-9.86-20.84-4.41-30.95-7.38-.17-.86-.34-1.71-.5-2.56,4.51-1.9,8.95-5.24,13.55-5.47,32.42-1.57,64.86-2.86,97.32-3.36,7-.11,14.16,3.33,21.24,5.14,0,.74-.07,1.49-.11,2.24-7.32.58-14.63,1.47-22,1.65-5.28.12-7.19,1.8-7,7.41.9,23.59,1.39,47.2,1.85,70.81,0,2.61-1.14,5.25-2,9,11.22,6.84,28.27,10.56,31.43,30.59C1030.52,1450.5,1023.06,1445.75,1015.56,1441.06Z" transform="translate(-396 -250.2)"/><path class="h" d="M1319.68,1297.19H1098.59a6.3,6.3,0,0,0-6.29,6.3v158.36a6.3,6.3,0,0,0,6.29,6.3h221.09a6.3,6.3,0,0,0,6.3-6.3V1303.49A6.3,6.3,0,0,0,1319.68,1297.19Zm-45.34,52.55c-7.34,1.34-14.79,2-23.61,3.18,1.78,20.75,3.47,41.6,5.4,62.43.6,6.46,2.57,12.86,2.51,19.28,0,3.73-2.82,7.43-4.36,11.14-4.71-2.73-9.41-5.44-14.08-8.22-.32-.2-.43-1-.38-1.47,1.23-15.88-10.34-20.73-22-24.54-13.74-4.46-27.86-7.81-41.82-11.59-4.74-1.28-9.65-2-14.24-3.72-2.38-.87-5-2.9-6-5.09-.47-1.11,2.23-4.6,4.19-5.49a41.64,41.64,0,0,1,12.57-3.61c12-1.31,21.11-7,27.18-17.19,1.45-2.44,1-6,1.23-7.68-10.54,2.54-20.13,6.65-29.66,6.52-6.22-.08-13.36-5.28-18.22-10.1-4.19-4.14-1.46-10.68,3.46-13.25,4.11-2.15,9.55-1.72,14.41-2.43.2,1.54,1,3.42.46,4.54-1,2-3,3.44-5.1,5.76,5.61,3.92,11.25,3.73,16.17.85s12.48-4.46,9.38-13.57c-.65-1.9,1.59-4.79,2.49-7.23,2.33,1.15,5.5,1.71,6.82,3.57a131.63,131.63,0,0,1,10.58,17.53c4.74,9.53.77,21.49-9.48,30.38-1.7,1.48-3.43,2.91-6.19,5.25l38.53,20c0-6.22.3-12.32-.06-18.38-.77-13-1.93-25.9-2.82-38.86-.34-4.86,1.34-8.14,7-7.88,11.44.52,22.92.69,34.32,1.59,2.54.2,4.89,2.83,7.32,4.35C1278.36,1347.16,1276.5,1349.34,1274.34,1349.74Z" transform="translate(-396 -250.2)"/></svg>